<svg width="196" height="32" viewBox="0 0 196 32" fill="none" xmlns="http://www.w3.org/2000/svg">
<path d="M64.7487 8.75998V22.8H61.3287V14.38L58.1887 22.8H55.4287L52.2687 14.36V22.8H48.8487V8.75998H52.8887L56.8287 18.48L60.7287 8.75998H64.7487ZM77.728 17.04C77.728 17.36 77.708 17.6933 77.668 18.04H69.928C69.9814 18.7333 70.2014 19.2667 70.588 19.64C70.988 20 71.4747 20.18 72.048 20.18C72.9014 20.18 73.4947 19.82 73.828 19.1H77.468C77.2814 19.8333 76.9414 20.4933 76.448 21.08C75.968 21.6667 75.3614 22.1267 74.628 22.46C73.8947 22.7933 73.0747 22.96 72.168 22.96C71.0747 22.96 70.1014 22.7267 69.248 22.26C68.3947 21.7933 67.728 21.1267 67.248 20.26C66.768 19.3933 66.528 18.38 66.528 17.22C66.528 16.06 66.7614 15.0467 67.228 14.18C67.708 13.3133 68.3747 12.6467 69.228 12.18C70.0814 11.7133 71.0614 11.48 72.168 11.48C73.248 11.48 74.208 11.7067 75.048 12.16C75.888 12.6133 76.5414 13.26 77.008 14.1C77.488 14.94 77.728 15.92 77.728 17.04ZM74.228 16.14C74.228 15.5533 74.028 15.0867 73.628 14.74C73.228 14.3933 72.728 14.22 72.128 14.22C71.5547 14.22 71.068 14.3867 70.668 14.72C70.2814 15.0533 70.0414 15.5267 69.948 16.14H74.228ZM90.5523 11.64V22.8H87.1323V21.28C86.7856 21.7733 86.3123 22.1733 85.7123 22.48C85.1256 22.7733 84.4723 22.92 83.7523 22.92C82.8989 22.92 82.1456 22.7333 81.4923 22.36C80.8389 21.9733 80.3323 21.42 79.9723 20.7C79.6123 19.98 79.4323 19.1333 79.4323 18.16V11.64H82.8323V17.7C82.8323 18.4467 83.0256 19.0267 83.4123 19.44C83.7989 19.8533 84.3189 20.06 84.9723 20.06C85.6389 20.06 86.1656 19.8533 86.5523 19.44C86.9389 19.0267 87.1323 18.4467 87.1323 17.7V11.64H90.5523ZM107.947 13.28C107.947 14.0933 107.76 14.84 107.387 15.52C107.014 16.1867 106.44 16.7267 105.667 17.14C104.894 17.5533 103.934 17.76 102.787 17.76H100.667V22.8H97.2471V8.75998H102.787C103.907 8.75998 104.854 8.95331 105.627 9.33998C106.4 9.72665 106.98 10.26 107.367 10.94C107.754 11.62 107.947 12.4 107.947 13.28ZM102.527 15.04C103.18 15.04 103.667 14.8867 103.987 14.58C104.307 14.2733 104.467 13.84 104.467 13.28C104.467 12.72 104.307 12.2867 103.987 11.98C103.667 11.6733 103.18 11.52 102.527 11.52H100.667V15.04H102.527ZM114.808 22.96C113.714 22.96 112.728 22.7267 111.848 22.26C110.981 21.7933 110.294 21.1267 109.788 20.26C109.294 19.3933 109.048 18.38 109.048 17.22C109.048 16.0733 109.301 15.0667 109.808 14.2C110.314 13.32 111.008 12.6467 111.888 12.18C112.768 11.7133 113.754 11.48 114.848 11.48C115.941 11.48 116.928 11.7133 117.808 12.18C118.688 12.6467 119.381 13.32 119.888 14.2C120.394 15.0667 120.648 16.0733 120.648 17.22C120.648 18.3667 120.388 19.38 119.868 20.26C119.361 21.1267 118.661 21.7933 117.768 22.26C116.888 22.7267 115.901 22.96 114.808 22.96ZM114.808 20C115.461 20 116.014 19.76 116.468 19.28C116.934 18.8 117.168 18.1133 117.168 17.22C117.168 16.3267 116.941 15.64 116.488 15.16C116.048 14.68 115.501 14.44 114.848 14.44C114.181 14.44 113.628 14.68 113.188 15.16C112.748 15.6267 112.528 16.3133 112.528 17.22C112.528 18.1133 112.741 18.8 113.168 19.28C113.608 19.76 114.154 20 114.808 20ZM127.002 22.96C126.029 22.96 125.162 22.7933 124.402 22.46C123.642 22.1267 123.042 21.6733 122.602 21.1C122.162 20.5133 121.915 19.86 121.862 19.14H125.242C125.282 19.5267 125.462 19.84 125.782 20.08C126.102 20.32 126.495 20.44 126.962 20.44C127.389 20.44 127.715 20.36 127.942 20.2C128.182 20.0267 128.302 19.8067 128.302 19.54C128.302 19.22 128.135 18.9867 127.802 18.84C127.469 18.68 126.929 18.5067 126.182 18.32C125.382 18.1333 124.715 17.94 124.182 17.74C123.649 17.5267 123.189 17.2 122.802 16.76C122.415 16.3067 122.222 15.7 122.222 14.94C122.222 14.3 122.395 13.72 122.742 13.2C123.102 12.6667 123.622 12.2467 124.302 11.94C124.995 11.6333 125.815 11.48 126.762 11.48C128.162 11.48 129.262 11.8267 130.062 12.52C130.875 13.2133 131.342 14.1333 131.462 15.28H128.302C128.249 14.8933 128.075 14.5867 127.782 14.36C127.502 14.1333 127.129 14.02 126.662 14.02C126.262 14.02 125.955 14.1 125.742 14.26C125.529 14.4067 125.422 14.6133 125.422 14.88C125.422 15.2 125.589 15.44 125.922 15.6C126.269 15.76 126.802 15.92 127.522 16.08C128.349 16.2933 129.022 16.5067 129.542 16.72C130.062 16.92 130.515 17.2533 130.902 17.72C131.302 18.1733 131.509 18.7867 131.522 19.56C131.522 20.2133 131.335 20.8 130.962 21.32C130.602 21.8267 130.075 22.2267 129.382 22.52C128.702 22.8133 127.909 22.96 127.002 22.96ZM138.154 22.96C137.181 22.96 136.314 22.7933 135.554 22.46C134.794 22.1267 134.194 21.6733 133.754 21.1C133.314 20.5133 133.068 19.86 133.014 19.14H136.394C136.434 19.5267 136.614 19.84 136.934 20.08C137.254 20.32 137.648 20.44 138.114 20.44C138.541 20.44 138.868 20.36 139.094 20.2C139.334 20.0267 139.454 19.8067 139.454 19.54C139.454 19.22 139.288 18.9867 138.954 18.84C138.621 18.68 138.081 18.5067 137.334 18.32C136.534 18.1333 135.868 17.94 135.334 17.74C134.801 17.5267 134.341 17.2 133.954 16.76C133.568 16.3067 133.374 15.7 133.374 14.94C133.374 14.3 133.548 13.72 133.894 13.2C134.254 12.6667 134.774 12.2467 135.454 11.94C136.148 11.6333 136.968 11.48 137.914 11.48C139.314 11.48 140.414 11.8267 141.214 12.52C142.028 13.2133 142.494 14.1333 142.614 15.28H139.454C139.401 14.8933 139.228 14.5867 138.934 14.36C138.654 14.1333 138.281 14.02 137.814 14.02C137.414 14.02 137.108 14.1 136.894 14.26C136.681 14.4067 136.574 14.6133 136.574 14.88C136.574 15.2 136.741 15.44 137.074 15.6C137.421 15.76 137.954 15.92 138.674 16.08C139.501 16.2933 140.174 16.5067 140.694 16.72C141.214 16.92 141.668 17.2533 142.054 17.72C142.454 18.1733 142.661 18.7867 142.674 19.56C142.674 20.2133 142.488 20.8 142.114 21.32C141.754 21.8267 141.228 22.2267 140.534 22.52C139.854 22.8133 139.061 22.96 138.154 22.96ZM144.087 17.2C144.087 16.0533 144.3 15.0467 144.727 14.18C145.167 13.3133 145.76 12.6467 146.507 12.18C147.253 11.7133 148.087 11.48 149.007 11.48C149.793 11.48 150.48 11.64 151.067 11.96C151.667 12.28 152.127 12.7 152.447 13.22V11.64H155.867V22.8H152.447V21.22C152.113 21.74 151.647 22.16 151.047 22.48C150.46 22.8 149.773 22.96 148.987 22.96C148.08 22.96 147.253 22.7267 146.507 22.26C145.76 21.78 145.167 21.1067 144.727 20.24C144.3 19.36 144.087 18.3467 144.087 17.2ZM152.447 17.22C152.447 16.3667 152.207 15.6933 151.727 15.2C151.26 14.7067 150.687 14.46 150.007 14.46C149.327 14.46 148.747 14.7067 148.267 15.2C147.8 15.68 147.567 16.3467 147.567 17.2C147.567 18.0533 147.8 18.7333 148.267 19.24C148.747 19.7333 149.327 19.98 150.007 19.98C150.687 19.98 151.26 19.7333 151.727 19.24C152.207 18.7467 152.447 18.0733 152.447 17.22ZM165.141 11.52C166.448 11.52 167.488 11.9467 168.261 12.8C169.048 13.64 169.441 14.8 169.441 16.28V22.8H166.041V16.74C166.041 15.9933 165.848 15.4133 165.461 15C165.074 14.5867 164.554 14.38 163.901 14.38C163.248 14.38 162.728 14.5867 162.341 15C161.954 15.4133 161.761 15.9933 161.761 16.74V22.8H158.341V11.64H161.761V13.12C162.108 12.6267 162.574 12.24 163.161 11.96C163.748 11.6667 164.408 11.52 165.141 11.52ZM178.037 19.9V22.8H176.297C175.057 22.8 174.091 22.5 173.397 21.9C172.704 21.2867 172.357 20.2933 172.357 18.92V14.48H170.997V11.64H172.357V8.91998H175.777V11.64H178.017V14.48H175.777V18.96C175.777 19.2933 175.857 19.5333 176.017 19.68C176.177 19.8267 176.444 19.9 176.817 19.9H178.037ZM190.462 17.04C190.462 17.36 190.442 17.6933 190.402 18.04H182.662C182.716 18.7333 182.936 19.2667 183.322 19.64C183.722 20 184.209 20.18 184.782 20.18C185.636 20.18 186.229 19.82 186.562 19.1H190.202C190.016 19.8333 189.676 20.4933 189.182 21.08C188.702 21.6667 188.096 22.1267 187.362 22.46C186.629 22.7933 185.809 22.96 184.902 22.96C183.809 22.96 182.836 22.7267 181.982 22.26C181.129 21.7933 180.462 21.1267 179.982 20.26C179.502 19.3933 179.262 18.38 179.262 17.22C179.262 16.06 179.496 15.0467 179.962 14.18C180.442 13.3133 181.109 12.6467 181.962 12.18C182.816 11.7133 183.796 11.48 184.902 11.48C185.982 11.48 186.942 11.7067 187.782 12.16C188.622 12.6133 189.276 13.26 189.742 14.1C190.222 14.94 190.462 15.92 190.462 17.04ZM186.962 16.14C186.962 15.5533 186.762 15.0867 186.362 14.74C185.962 14.3933 185.462 14.22 184.862 14.22C184.289 14.22 183.802 14.3867 183.402 14.72C183.016 15.0533 182.776 15.5267 182.682 16.14H186.962Z" fill="#F3123C"/>
<path d="M17.7826 3C10.7231 3 5 8.73089 5 15.8C5 22.8692 10.7231 28.6 17.7826 28.6C24.8421 28.6 30.5652 22.8692 30.5652 15.8C30.5652 8.73089 24.8422 3 17.7826 3ZM9.94085 21.6262C8.89352 20.1367 8.2571 18.154 8.19829 16.3885H13.6687C13.4694 18.154 11.6152 20.704 9.94085 21.6262ZM17.7826 25.4121C15.9354 25.4121 14.2146 24.886 12.7536 23.9784C13.4899 22.9491 14.3798 20.9 18.0282 20.9C21.5545 20.9 22.4125 22.3201 23.3029 23.6519C21.7425 24.7589 19.8413 25.4121 17.7826 25.4121ZM16.2399 16.6828C16.2399 15.7482 16.9963 14.9908 17.9295 14.9908C18.8628 14.9908 19.6192 15.7482 19.6192 16.6828C19.6192 17.6173 18.8628 18.3747 17.9295 18.3747C16.9963 18.3747 16.2399 17.6173 16.2399 16.6828ZM25.7413 21.445C23.1177 20.3892 22.7787 18.154 22.5941 16.3885H27.3669C27.3105 18.154 26.7157 19.9901 25.7413 21.445ZM8.5609 13.446C9.7105 9.32638 13.3995 6.48217 17.7826 6.48217C22.1657 6.48217 25.8547 9.32644 27.0043 13.446H8.5609Z" fill="#F3123C"/>
</svg>
